<?xml version="1.0" encoding="utf-8"?>
<!-- Generator: Adobe Illustrator 25.3.1, SVG Export Plug-In . SVG Version: 6.00 Build 0)  -->
<svg version="1.1" id="Capa_1" xmlns="http://www.w3.org/2000/svg" xmlns:xlink="http://www.w3.org/1999/xlink" x="0px" y="0px"
	 viewBox="0 0 346.4 346.4" style="enable-background:new 0 0 346.4 346.4;" xml:space="preserve">
<style type="text/css">
	.st0{fill:#FFFFFF;}
</style>
<g>
	<path class="st0" d="M287.9,204.7c21.4-4.3,39.8-15.3,56.3-28.8c3.7-3.1,2.4-9.2-1.2-11.6c-19.6-11-41-20.2-63.6-22.6
		c-6.7-0.6-7.3,9.8-1.2,11c16.5,4.3,32.4,10.4,47.7,18.4c-4.3,3.1-9.2,6.1-14.1,8.6c4.3-4.3,2.4-14.1-5.5-14.1
		c-99.8-0.6-202.6-23.3-301.1-5.5c-8,1.2-6.1,14.7,1.8,14.1c100.4-8,198.9,7.3,299.3,8c0.6,0,1.2,0,1.2,0c-7.3,3.7-14.7,6.1-23.3,8
		C274.4,191.2,278.1,206.5,287.9,204.7z"/>
</g>
</svg>
